# xmcd CD database file
#
# Track frame offsets:
#	150
#	45255
#	73132
#	102262
#	131975
#	165987
#
# Disc length: 2601 seconds
#
# Revision: 0
# Processed by: cddbd v1.5PL3 Copyright (c) Steve Scherf et al.
# Submitted via: CDex 1.51
#
DISCID=4b0a2706
DTITLE=Buddy DeFranco - Autumn Leaves
DYEAR=1954
DGENRE=Jazz
TTITLE0=Titoro
TTITLE1=You Go To My Head
TTITLE2=Mine
TTITLE3=Gerry's Tune
TTITLE4=Autumn Leaves
TTITLE5=Now's The Time
EXTD=YEAR: 1954
EXTT0=
EXTT1=
EXTT2=
EXTT3=
EXTT4=
EXTT5=
PLAYORDER=
